PathFileType	4	(X/Y/Z)	/Users/itak/Documents/Research/Walk-IL/dataset/trc/00490_00167.trc
DataRate	CameraRate	NumFrames	NumMarkers	Units	OrigDataRate	OrigDataStartFrame	OrigNumFrames
100.000000	100.000000	4	53	mm	100.000000	0	542
Frame#	Time	RPSI			LPSI			L3			STRN			T10			C7			CLAV			RBAK			LBAK			LSHO			LUPA			LAEL			LAOL			LWTS			LWPS			LFRA			LIFD			LHPS			LHTS			RSHO			RUPA			RAEL			RAOL			RWTS			RWPS			RFRA			RIFD			RHTS			RHPS			RBHD			LFHD			RFHD			LBHD			LHIP			RHIP			RASI			LASI			LKNE			LTHI			LANK			LTIP			LTOE			LMT1			LMT5			LHEE			RKNE			RTHI			RANK			RTIP			RTOE			RMT1			RMT5			RHEE			
		X1	Y1	Z1	X2	Y2	Z2	X3	Y3	Z3	X4	Y4	Z4	X5	Y5	Z5	X6	Y6	Z6	X7	Y7	Z7	X8	Y8	Z8	X9	Y9	Z9	X10	Y10	Z10	X11	Y11	Z11	X12	Y12	Z12	X13	Y13	Z13	X14	Y14	Z14	X15	Y15	Z15	X16	Y16	Z16	X17	Y17	Z17	X18	Y18	Z18	X19	Y19	Z19	X20	Y20	Z20	X21	Y21	Z21	X22	Y22	Z22	X23	Y23	Z23	X24	Y24	Z24	X25	Y25	Z25	X26	Y26	Z26	X27	Y27	Z27	X28	Y28	Z28	X29	Y29	Z29	X30	Y30	Z30	X31	Y31	Z31	X32	Y32	Z32	X33	Y33	Z33	X34	Y34	Z34	X35	Y35	Z35	X36	Y36	Z36	X37	Y37	Z37	X38	Y38	Z38	X39	Y39	Z39	X40	Y40	Z40	X41	Y41	Z41	X42	Y42	Z42	X43	Y43	Z43	X44	Y44	Z44	X45	Y45	Z45	X46	Y46	Z46	X47	Y47	Z47	X48	Y48	Z48	X49	Y49	Z49	X50	Y50	Z50	X51	Y51	Z51	X52	Y52	Z52	X53	Y53	Z53	

1	0	-1656.236083984375	968.14013671875	-456.9537048339844	-1574.268188476562	966.4988403320312	-572.1787109375	-1609.434326171875	1061.224975585938	-494.0862731933594	-1373.109252929688	1255.964233398438	-357.905517578125	-1619.291625976562	1186.5390625	-505.9881591796875	-1565.982788085938	1455.67626953125	-461.9722900390625	-1401.205688476562	1368.305297851562	-381.8646545410156	-1669.605590820312	1337.348999023438	-410.6783752441406	-1544.53857421875	1406.024291992188	-564.7656860351562	-1416.296142578125	1423.732421875	-581.9695434570312	-1375.636962890625	1303.402465820312	-670.3047485351562	-1343.128295898438	1085.91796875	-684.6761474609375	-1444.554321289062	1072.219116210938	-666.9197998046875	-1279.741821289062	894.6300048828125	-601.9707641601562	-1305.416625976562	868.7847900390625	-668.4349365234375	-1319.381225585938	998.8140258789062	-679.1022338867188	-1294.07763671875	723.2051391601562	-591.9799194335938	-1299.098266601562	790.7128295898438	-660.1329345703125	-1280.093139648438	800.0150146484375	-591.3458251953125	-1586.001220703125	1423.228759765625	-288.9879760742188	-1637.911987304688	1364.221557617188	-229.9266204833984	-1655.303344726562	1078.701171875	-162.7423400878906	-1688.973754882812	1061.227294921875	-219.2516021728516	-1546.240234375	870.7457275390625	-168.701416015625	-1626.635864257812	858.46484375	-133.3693542480469	-1655.65283203125	1020.541564941406	-150.9393615722656	-1550.312255859375	714.2697143554688	-161.8867950439453	-1537.487548828125	773.0486450195312	-154.0061492919922	-1611.84228515625	770.1321411132812	-131.5328979492188	-1499.23681640625	1656.01220703125	-329.7425231933594	-1307.622192382812	1634.767456054688	-409.1060791015625	-1367.73974609375	1638.347778320312	-291.934326171875	-1433.467163085938	1659.362182617188	-494.5129089355469	-1395.576049804688	865.54833984375	-591.767333984375	-1643.028930664062	862.280029296875	-279.7746276855469	-1520.865234375	902.0889892578125	-266.90087890625	-1359.183715820312	900.6524047851562	-470.0296630859375	-1404.075439453125	446.1263122558594	-557.0855712890625	-1373.337158203125	597.8468627929688	-561.8208618164062	-1497.22216796875	45.75239562988281	-626.5535888671875	-1413.837280273438	296.0108337402344	-581.7378540039062	-1350.240478515625	45.15457916259766	-431.3962097167969	-1429.847290039062	50.35175323486328	-453.8892517089844	-1365.109985351562	48.86354827880859	-547.3775024414062	-1570.260375976562	47.29673004150391	-600.156005859375	-1615.500854492188	469.7425231933594	-287.9050903320312	-1614.271728515625	729.5211791992188	-246.5191192626953	-1675.731689453125	40.58345413208008	-311.3265380859375	-1626.423706054688	330.2953796386719	-278.8700866699219	-1463.676513671875	48.07698059082031	-245.5899353027344	-1501.923217773438	56.23149108886719	-306.5794372558594	-1573.471923828125	46.46508407592773	-223.1559143066406	-1707.839721679688	33.41654586791992	-383.9432983398438	
2	0.01	-1656.192504882812	968.2236328125	-456.9366760253906	-1574.212036132812	966.509033203125	-572.1357421875	-1609.36083984375	1061.205688476562	-494.0657653808594	-1373.100830078125	1255.948486328125	-357.8367919921875	-1619.176025390625	1186.511108398438	-505.9692993164062	-1565.922607421875	1455.7001953125	-461.9522399902344	-1401.192504882812	1368.299682617188	-381.7799072265625	-1669.527587890625	1337.32421875	-410.739013671875	-1544.475219726562	1406.03564453125	-564.7554321289062	-1416.205078125	1423.774536132812	-581.8931884765625	-1375.435180664062	1303.465576171875	-670.2149047851562	-1342.7109375	1086.09375	-684.604736328125	-1444.338500976562	1072.42578125	-667.0926513671875	-1283.501708984375	892.6611938476562	-600.1917114257812	-1304.673950195312	869.0172729492188	-668.1802978515625	-1318.8251953125	998.974365234375	-678.9421997070312	-1292.855346679688	723.5573120117188	-591.5501708984375	-1298.24267578125	790.9210205078125	-659.7957153320312	-1279.261108398438	800.3660278320312	-590.9825439453125	-1586.025390625	1423.256103515625	-289.0055847167969	-1637.998046875	1364.278930664062	-229.9418182373047	-1655.737182617188	1078.8056640625	-162.8579254150391	-1689.290771484375	1061.322509765625	-219.4362182617188	-1546.634887695312	870.8854370117188	-168.4863891601562	-1627.111572265625	858.5738525390625	-133.3523559570312	-1656.13232421875	1020.619689941406	-151.0350646972656	-1550.610961914062	714.4490356445312	-161.6141662597656	-1537.85205078125	773.2227783203125	-153.6056060791016	-1612.260009765625	770.2658081054688	-131.3679656982422	-1499.41357421875	1656.047241210938	-329.7626647949219	-1307.755004882812	1634.908447265625	-409.0537109375	-1367.863159179688	1638.480834960938	-291.8958740234375	-1433.546020507812	1659.390502929688	-494.4909362792969	-1395.523315429688	865.5426635742188	-591.7379760742188	-1642.975830078125	862.2818603515625	-279.7597045898438	-1520.791625976562	902.0772094726562	-266.8912963867188	-1359.126831054688	900.6578979492188	-470.0117492675781	-1404.073974609375	446.0994873046875	-557.0612182617188	-1373.2919921875	597.8098754882812	-561.7915649414062	-1497.210205078125	45.75326538085938	-626.5439453125	-1413.81201171875	295.9850769042969	-581.7109985351562	-1350.239013671875	45.14072036743164	-431.3850402832031	-1429.848754882812	50.35103988647461	-453.8832397460938	-1365.10595703125	48.86173248291016	-547.374267578125	-1570.262084960938	47.37645721435547	-600.1292114257812	-1615.50830078125	469.7525024414062	-287.8782348632812	-1614.203979492188	729.5220336914062	-246.5275421142578	-1675.729370117188	40.59163665771484	-311.3327941894531	-1626.41259765625	330.2942810058594	-278.8731994628906	-1463.666259765625	48.06381607055664	-245.5811309814453	-1501.923950195312	56.23519897460938	-306.5742492675781	-1573.467529296875	46.46731567382812	-223.1587219238281	-1707.832885742188	33.41284942626953	-383.9386596679688	
3	0.02	-1656.134155273438	968.3116455078125	-456.9071655273438	-1574.140625	966.5256958007812	-572.0809326171875	-1609.265991210938	1061.179321289062	-494.0400390625	-1373.099365234375	1255.927490234375	-357.7398986816406	-1619.03271484375	1186.476806640625	-505.9481201171875	-1565.846923828125	1455.7255859375	-461.9354248046875	-1401.181030273438	1368.294799804688	-381.6685485839844	-1669.430908203125	1337.29443359375	-410.819091796875	-1544.394287109375	1406.046264648438	-564.7455444335938	-1416.076904296875	1423.82470703125	-581.789306640625	-1375.171997070312	1303.543212890625	-670.0899658203125	-1342.188842773438	1086.313232421875	-684.5211791992188	-1443.963745117188	1072.597900390625	-667.2651977539062	-1286.796630859375	890.935791015625	-598.4666137695312	-1303.724853515625	869.3006591796875	-667.8638305664062	-1318.11083984375	999.1770629882812	-678.7520751953125	-1291.424072265625	723.9742431640625	-591.0665283203125	-1297.143432617188	791.1926879882812	-659.3892211914062	-1278.204467773438	800.8071899414062	-590.5498046875	-1586.065063476562	1423.291381835938	-289.0318908691406	-1638.1103515625	1364.351196289062	-229.9666900634766	-1656.276000976562	1078.934936523438	-162.9853057861328	-1689.673095703125	1061.439453125	-219.6403350830078	-1547.1015625	871.0714111328125	-168.2226257324219	-1627.676635742188	858.7169799804688	-133.3226776123047	-1656.7216796875	1020.718688964844	-151.1325378417969	-1550.943237304688	714.6723022460938	-161.2565002441406	-1538.27392578125	773.4435424804688	-153.1271514892578	-1612.744262695312	770.4303588867188	-131.1658935546875	-1499.643310546875	1656.092651367188	-329.7948913574219	-1307.919921875	1635.100463867188	-408.9867553710938	-1368.014526367188	1638.653442382812	-291.8433837890625	-1433.645751953125	1659.422729492188	-494.4688720703125	-1395.466064453125	865.5391235351562	-591.7044677734375	-1642.908813476562	862.2857666015625	-279.7366943359375	-1520.70263671875	902.0638427734375	-266.8717956542969	-1359.059326171875	900.6600952148438	-469.9897155761719	-1404.0693359375	446.0645751953125	-557.031982421875	-1373.232177734375	597.76806640625	-561.7523803710938	-1497.196166992188	45.75418472290039	-626.536865234375	-1413.787475585938	295.9559936523438	-581.6829223632812	-1350.236083984375	45.1264533996582	-431.3720092773438	-1429.84912109375	50.34986877441406	-453.8767395019531	-1365.101440429688	48.85903549194336	-547.370849609375	-1570.263671875	47.47006225585938	-600.094970703125	-1615.514526367188	469.7640075683594	-287.8439025878906	-1614.139770507812	729.5225830078125	-246.5153198242188	-1675.72509765625	40.59540557861328	-311.3351135253906	-1626.400146484375	330.2927856445312	-278.8719482421875	-1463.653930664062	48.05000686645508	-245.5736236572266	-1501.925537109375	56.24038314819336	-306.5672302246094	-1573.46240234375	46.46986389160156	-223.1620025634766	-1707.824462890625	33.4097785949707	-383.9325866699219	
4	0.03	-1656.064697265625	968.39501953125	-456.8650207519531	-1574.05517578125	966.548095703125	-572.01611328125	-1609.155151367188	1061.146850585938	-494.0111083984375	-1373.108764648438	1255.90185546875	-357.6148986816406	-1618.869873046875	1186.437866210938	-505.92724609375	-1565.759643554688	1455.749389648438	-461.9263305664062	-1401.173217773438	1368.290893554688	-381.5339050292969	-1669.321655273438	1337.261840820312	-410.9176330566406	-1544.299438476562	1406.054077148438	-564.738037109375	-1415.911987304688	1423.878784179688	-581.6587524414062	-1374.853759765625	1303.632202148438	-669.9303588867188	-1341.58154296875	1086.566284179688	-684.4317016601562	-1443.41455078125	1072.701049804688	-667.416748046875	-1289.175048828125	889.683837890625	-596.9859619140625	-1302.603149414062	869.621826171875	-667.502685546875	-1317.262084960938	999.414794921875	-678.5449829101562	-1289.86474609375	724.4225463867188	-590.5667114257812	-1295.836669921875	791.5222778320312	-658.9400634765625	-1276.961181640625	801.31982421875	-590.07763671875	-1586.123168945312	1423.3330078125	-289.0675659179688	-1638.246704101562	1364.435424804688	-230.0034790039062	-1656.89404296875	1079.08251953125	-163.1122589111328	-1690.098876953125	1061.57080078125	-219.8459320068359	-1547.606567382812	871.2997436523438	-167.9230194091797	-1628.291748046875	858.8900756835938	-133.2775115966797	-1657.388793945312	1020.834533691406	-151.2194671630859	-1551.276489257812	714.9293823242188	-160.8244476318359	-1538.719116210938	773.704833984375	-152.5982513427734	-1613.255981445312	770.6180419921875	-130.9356384277344	-1499.918823242188	1656.14697265625	-329.8405456542969	-1308.10791015625	1635.340698242188	-408.9082336425781	-1368.188720703125	1638.86181640625	-291.7781982421875	-1433.763793945312	1659.456298828125	-494.4513549804688	-1395.408203125	865.538330078125	-591.6682739257812	-1642.831298828125	862.2925415039062	-279.7046203613281	-1520.603759765625	902.0498657226562	-266.8400573730469	-1358.984985351562	900.656494140625	-469.9634704589844	-1404.06201171875	446.0236511230469	-556.9993896484375	-1373.161987304688	597.7243041992188	-561.7051391601562	-1497.182006835938	45.75564575195312	-626.532958984375	-1413.768432617188	295.9255676269531	-581.657958984375	-1350.232055664062	45.11323165893555	-431.3585815429688	-1429.848510742188	50.34840393066406	-453.8704528808594	-1365.096557617188	48.8557014465332	-547.3670043945312	-1570.264282226562	47.56731796264648	-600.057373046875	-1615.518676757812	469.7759704589844	-287.8035583496094	-1614.086669921875	729.5233154296875	-246.4787292480469	-1675.7158203125	40.58996200561523	-311.3306579589844	-1626.387451171875	330.2908325195312	-278.864990234375	-1463.640991210938	48.03689575195312	-245.5692138671875	-1501.928100585938	56.24681854248047	-306.5587158203125	-1573.457275390625	46.47201538085938	-223.1652069091797	-1707.815307617188	33.4087028503418	-383.9257202148438	
